STARTFONT 2.1
FONT -sun-arioso-bold-r-normal--12-120-75-75-p-65-adobe-fontspecific
SIZE 12 75 75
FONTBOUNDINGBOX 16 15 -2 -3

STARTPROPERTIES 28
FOUNDRY "sun"
FAMILY_NAME "arioso"
WEIGHT_NAME "bold"
SLANT "r"
SETWIDTH_NAME "normal"
ADD_STYLE_NAME ""
PIXEL_SIZE 12
POINT_SIZE 120
RESOLUTION_X 75
RESOLUTION_Y 75
SPACING "p"
AVERAGE_WIDTH 65
CHARSET_REGISTRY "adobe"
CHARSET_ENCODING "fontspecific"
COPYRIGHT "© 1999 Sun Microsystems, Inc."
RAW_PIXELSIZE 1000
RAW_POINTSIZE 964
RAW_ASCENT 906
RAW_DESCENT 247
RAW_AVERAGE_WIDTH 5188
FACE_NAME "AriosoBold"
_XMBDFED_INFO "Edited with xmbdfed 2.4."
WEIGHT 10
X_HEIGHT -1
QUAD_WIDTH 6
DEFAULT_CHAR 4
FONT_DESCENT 3
FONT_ASCENT 12
ENDPROPERTIES

CHARS 195

STARTCHAR char32
ENCODING 32
SWIDTH 21 0
DWIDTH 3 0
BBX 0 0 0 0
BITMAP
ENDCHAR

STARTCHAR char33
ENCODING 33
SWIDTH 28 0
DWIDTH 4 0
BBX 4 9 1 0
BITMAP
10
20
20
20
20
40
00
C0
C0
ENDCHAR

STARTCHAR char34
ENCODING 34
SWIDTH 35 0
DWIDTH 5 0
BBX 5 4 1 5
BITMAP
28
78
50
A0
ENDCHAR

STARTCHAR char35
ENCODING 35
SWIDTH 50 0
DWIDTH 7 0
BBX 7 9 0 0
BITMAP
24
24
36
28
28
38
C8
48
48
ENDCHAR

STARTCHAR char36
ENCODING 36
SWIDTH 50 0
DWIDTH 7 0
BBX 7 10 0 -1
BITMAP
1C
6A
68
68
38
2C
2C
AC
B8
40
ENDCHAR

STARTCHAR char37
ENCODING 37
SWIDTH 71 0
DWIDTH 10 0
BBX 10 8 0 0
BITMAP
2100
5200
D400
BB80
F2C0
16C0
26C0
4780
ENDCHAR

STARTCHAR char38
ENCODING 38
SWIDTH 50 0
DWIDTH 7 0
BBX 6 8 0 0
BITMAP
18
3C
38
30
54
DC
DC
6C
ENDCHAR

STARTCHAR char39
ENCODING 39
SWIDTH 21 0
DWIDTH 3 0
BBX 2 4 1 5
BITMAP
40
40
C0
80
ENDCHAR

STARTCHAR char40
ENCODING 40
SWIDTH 35 0
DWIDTH 5 0
BBX 5 11 0 -2
BITMAP
08
10
20
20
60
40
40
C0
80
80
80
ENDCHAR

STARTCHAR char41
ENCODING 41
SWIDTH 35 0
DWIDTH 5 0
BBX 5 11 -1 -2
BITMAP
08
08
10
10
10
10
30
20
20
40
80
ENDCHAR

STARTCHAR char42
ENCODING 42
SWIDTH 35 0
DWIDTH 5 0
BBX 4 4 1 5
BITMAP
60
F0
70
70
ENDCHAR

STARTCHAR char43
ENCODING 43
SWIDTH 57 0
DWIDTH 8 0
BBX 7 7 1 0
BITMAP
30
30
30
FE
30
30
30
ENDCHAR

STARTCHAR char44
ENCODING 44
SWIDTH 21 0
DWIDTH 3 0
BBX 3 4 0 -2
BITMAP
20
60
C0
80
ENDCHAR

STARTCHAR char45
ENCODING 45
SWIDTH 28 0
DWIDTH 4 0
BBX 4 1 0 2
BITMAP
F0
ENDCHAR

STARTCHAR char46
ENCODING 46
SWIDTH 21 0
DWIDTH 3 0
BBX 2 2 0 0
BITMAP
C0
C0
ENDCHAR

STARTCHAR char47
ENCODING 47
SWIDTH 43 0
DWIDTH 6 0
BBX 6 9 0 0
BITMAP
04
08
08
10
10
20
40
40
80
ENDCHAR

STARTCHAR char48
ENCODING 48
SWIDTH 50 0
DWIDTH 7 0
BBX 6 8 0 0
BITMAP
18
24
64
44
CC
CC
48
70
ENDCHAR

STARTCHAR char49
ENCODING 49
SWIDTH 50 0
DWIDTH 7 0
BBX 4 8 2 0
BITMAP
10
30
E0
60
40
40
C0
80
ENDCHAR

STARTCHAR char50
ENCODING 50
SWIDTH 50 0
DWIDTH 7 0
BBX 6 8 0 0
BITMAP
18
6C
4C
48
10
60
C0
F0
ENDCHAR

STARTCHAR char51
ENCODING 51
SWIDTH 50 0
DWIDTH 7 0
BBX 6 8 0 0
BITMAP
38
2C
0C
30
08
08
98
F0
ENDCHAR

STARTCHAR char52
ENCODING 52
SWIDTH 50 0
DWIDTH 7 0
BBX 7 8 0 0
BITMAP
04
04
1C
28
48
FC
10
10
ENDCHAR

STARTCHAR char53
ENCODING 53
SWIDTH 50 0
DWIDTH 7 0
BBX 6 8 0 0
BITMAP
1C
20
20
38
0C
0C
18
F0
ENDCHAR

STARTCHAR char54
ENCODING 54
SWIDTH 50 0
DWIDTH 7 0
BBX 7 8 0 0
BITMAP
04
08
30
78
C4
CC
C8
70
ENDCHAR

STARTCHAR char55
ENCODING 55
SWIDTH 50 0
DWIDTH 7 0
BBX 6 8 1 0
BITMAP
F8
88
10
10
20
60
40
C0
ENDCHAR

STARTCHAR char56
ENCODING 56
SWIDTH 50 0
DWIDTH 7 0
BBX 7 8 0 0
BITMAP
3C
66
26
3C
58
CC
CC
78
ENDCHAR

STARTCHAR char57
ENCODING 57
SWIDTH 50 0
DWIDTH 7 0
BBX 7 8 0 0
BITMAP
3C
66
C6
CE
EC
18
20
40
ENDCHAR

STARTCHAR char58
ENCODING 58
SWIDTH 21 0
DWIDTH 3 0
BBX 3 5 1 0
BITMAP
60
60
00
80
C0
ENDCHAR

STARTCHAR char59
ENCODING 59
SWIDTH 21 0
DWIDTH 3 0
BBX 3 7 0 -2
BITMAP
20
20
00
20
60
40
80
ENDCHAR

STARTCHAR char60
ENCODING 60
SWIDTH 57 0
DWIDTH 8 0
BBX 6 6 1 0
BITMAP
0C
70
80
C0
38
04
ENDCHAR

STARTCHAR char61
ENCODING 61
SWIDTH 57 0
DWIDTH 8 0
BBX 9 3 0 2
BITMAP
FF80
0000
FF80
ENDCHAR

STARTCHAR char62
ENCODING 62
SWIDTH 57 0
DWIDTH 8 0
BBX 6 6 1 0
BITMAP
C0
30
0C
18
60
80
ENDCHAR

STARTCHAR char63
ENCODING 63
SWIDTH 35 0
DWIDTH 5 0
BBX 4 9 1 0
BITMAP
20
50
50
70
60
C0
60
C0
C0
ENDCHAR

STARTCHAR char64
ENCODING 64
SWIDTH 20 0
DWIDTH 13 0
BBX 10 9 1 0
BITMAP
1F00
2080
7FC0
F3C0
F2C0
F2C0
7F00
2080
1F00
ENDCHAR

STARTCHAR char65
ENCODING 65
SWIDTH 6 0
DWIDTH 11 0
BBX 12 9 -1 0
BITMAP
0030
0050
0070
00A0
07F0
7960
C2C0
C6C0
78F0
ENDCHAR

STARTCHAR char66
ENCODING 66
SWIDTH 71 0
DWIDTH 10 0
BBX 10 9 -1 0
BITMAP
0F80
32C0
42C0
C680
C500
4480
0CC0
1880
3F00
ENDCHAR

STARTCHAR char67
ENCODING 67
SWIDTH 57 0
DWIDTH 8 0
BBX 9 9 -1 0
BITMAP
0F00
1980
3780
6980
F100
F200
DC00
C000
7F00
ENDCHAR

STARTCHAR char68
ENCODING 68
SWIDTH 6 0
DWIDTH 11 0
BBX 12 9 -1 0
BITMAP
0FC0
1120
2330
4230
C630
C630
4460
0CC0
0F00
ENDCHAR

STARTCHAR char69
ENCODING 69
SWIDTH 57 0
DWIDTH 8 0
BBX 9 9 -1 0
BITMAP
0700
0D80
0B00
0A00
1000
6080
C180
C100
7E00
ENDCHAR

STARTCHAR char70
ENCODING 70
SWIDTH 13 0
DWIDTH 12 0
BBX 13 12 -1 -3
BITMAP
0FC0
31F8
2020
4040
C0C0
C3F8
C380
C380
4380
0500
0D00
0E00
ENDCHAR

STARTCHAR char71
ENCODING 71
SWIDTH 6 0
DWIDTH 11 0
BBX 11 11 0 -2
BITMAP
03C0
0CC0
1080
2100
2680
7D80
6180
6300
3DC0
0300
1E00
ENDCHAR

STARTCHAR char72
ENCODING 72
SWIDTH 13 0
DWIDTH 12 0
BBX 12 9 0 0
BITMAP
3C20
C2F0
85C0
0700
0F30
3B30
4E20
D660
E780
ENDCHAR

STARTCHAR char73
ENCODING 73
SWIDTH 57 0
DWIDTH 8 0
BBX 9 9 -1 0
BITMAP
1F80
2080
2080
0100
0100
3F00
4300
C600
7800
ENDCHAR

STARTCHAR char74
ENCODING 74
SWIDTH 57 0
DWIDTH 8 0
BBX 9 12 -1 -3
BITMAP
0780
1880
2100
4100
4300
4200
C780
DE00
2400
4800
D000
2000
ENDCHAR

STARTCHAR char75
ENCODING 75
SWIDTH 13 0
DWIDTH 12 0
BBX 12 9 0 0
BITMAP
1F90
6120
4160
0340
0380
0600
0700
0580
F8F0
ENDCHAR

STARTCHAR char76
ENCODING 76
SWIDTH 71 0
DWIDTH 10 0
BBX 11 9 -1 0
BITMAP
00C0
0360
0260
0660
0680
0500
0400
7E00
F7C0
ENDCHAR

STARTCHAR char77
ENCODING 77
SWIDTH 20 0
DWIDTH 13 0
BBX 14 9 -1 0
BITMAP
00EC
0174
01F8
02E8
02D8
05F0
05F0
8930
703C
ENDCHAR

STARTCHAR char78
ENCODING 78
SWIDTH 6 0
DWIDTH 11 0
BBX 13 9 -1 0
BITMAP
0E10
11F0
2120
4360
C740
C6C0
CEC0
18C0
1C70
ENDCHAR

STARTCHAR char79
ENCODING 79
SWIDTH 57 0
DWIDTH 8 0
BBX 8 9 0 0
BITMAP
1E
31
51
53
C3
C2
C6
C4
78
ENDCHAR

STARTCHAR char80
ENCODING 80
SWIDTH 13 0
DWIDTH 12 0
BBX 12 11 -1 -2
BITMAP
07C0
1920
6330
C230
C630
C430
4C60
0C40
0F80
1800
1000
ENDCHAR

STARTCHAR char81
ENCODING 81
SWIDTH 57 0
DWIDTH 8 0
BBX 10 11 -1 -2
BITMAP
1F00
3180
6180
E180
C380
C300
4300
0400
FC40
07C0
0180
ENDCHAR

STARTCHAR char82
ENCODING 82
SWIDTH 71 0
DWIDTH 10 0
BBX 11 9 -1 0
BITMAP
07C0
1960
2260
4660
C440
C580
CE00
4B00
09E0
ENDCHAR

STARTCHAR char83
ENCODING 83
SWIDTH 50 0
DWIDTH 7 0
BBX 8 9 0 0
BITMAP
0E
1E
1C
18
08
3C
C7
CC
78
ENDCHAR

STARTCHAR char84
ENCODING 84
SWIDTH 64 0
DWIDTH 9 0
BBX 11 9 -1 0
BITMAP
1FE0
2080
4080
C180
C100
5900
2300
6200
3C00
ENDCHAR

STARTCHAR char85
ENCODING 85
SWIDTH 6 0
DWIDTH 11 0
BBX 13 9 -1 0
BITMAP
0700
1B30
2370
4260
C6E0
CD40
4FC0
4B80
0CF0
ENDCHAR

STARTCHAR char86
ENCODING 86
SWIDTH 6 0
DWIDTH 11 0
BBX 12 9 -1 0
BITMAP
07A0
1930
2330
4630
C630
CC20
CC20
4CC0
0700
ENDCHAR

STARTCHAR char87
ENCODING 87
SWIDTH 20 0
DWIDTH 13 0
BBX 14 9 -1 0
BITMAP
3FE8
426C
46CC
058C
0D8C
0F88
0B88
0D90
09E0
ENDCHAR

STARTCHAR char88
ENCODING 88
SWIDTH 6 0
DWIDTH 11 0
BBX 13 9 -1 0
BITMAP
0F38
31C0
6380
C380
CF98
C718
0710
1E20
F3C0
ENDCHAR

STARTCHAR char89
ENCODING 89
SWIDTH 6 0
DWIDTH 11 0
BBX 12 11 -1 -2
BITMAP
0E00
3330
4760
C660
CEE0
DCC0
5DC0
1AF0
1F80
0D80
1F00
ENDCHAR

STARTCHAR char90
ENCODING 90
SWIDTH 6 0
DWIDTH 11 0
BBX 12 9 -1 0
BITMAP
07C0
0820
1660
16C0
33E0
3580
1A00
3F10
FFE0
ENDCHAR

STARTCHAR char91
ENCODING 91
SWIDTH 35 0
DWIDTH 5 0
BBX 7 12 -1 -3
BITMAP
0C
18
18
10
30
20
20
60
40
40
C0
40
ENDCHAR

STARTCHAR char92
ENCODING 92
SWIDTH 21 0
DWIDTH 3 0
BBX 4 9 0 0
BITMAP
80
80
40
40
40
20
20
20
20
ENDCHAR

STARTCHAR char93
ENCODING 93
SWIDTH 35 0
DWIDTH 5 0
BBX 6 12 -2 -3
BITMAP
08
04
0C
08
18
18
10
30
30
20
60
40
ENDCHAR

STARTCHAR char94
ENCODING 94
SWIDTH 0 0
DWIDTH 0 0
BBX 3 2 0 9
BITMAP
40
A0
ENDCHAR

STARTCHAR char95
ENCODING 95
SWIDTH 50 0
DWIDTH 7 0
BBX 7 1 0 -2
BITMAP
FE
ENDCHAR

STARTCHAR char96
ENCODING 96
SWIDTH 0 0
DWIDTH 0 0
BBX 3 2 -1 6
BITMAP
60
20
ENDCHAR

STARTCHAR char97
ENCODING 97
SWIDTH 43 0
DWIDTH 6 0
BBX 7 5 -1 0
BITMAP
3C
64
C8
C8
FC
ENDCHAR

STARTCHAR char98
ENCODING 98
SWIDTH 43 0
DWIDTH 6 0
BBX 7 9 -1 0
BITMAP
08
10
10
38
7C
7C
EC
CE
F0
ENDCHAR

STARTCHAR char99
ENCODING 99
SWIDTH 35 0
DWIDTH 5 0
BBX 6 5 -1 0
BITMAP
3C
68
D0
C0
F8
ENDCHAR

STARTCHAR char100
ENCODING 100
SWIDTH 43 0
DWIDTH 6 0
BBX 8 9 -1 0
BITMAP
01
02
06
06
3C
6C
D8
D8
FE
ENDCHAR

STARTCHAR char101
ENCODING 101
SWIDTH 28 0
DWIDTH 4 0
BBX 5 5 0 0
BITMAP
38
58
E0
80
F0
ENDCHAR

STARTCHAR char102
ENCODING 102
SWIDTH 28 0
DWIDTH 4 0
BBX 6 11 -1 -2
BITMAP
04
0C
14
14
18
70
E0
E0
78
40
C0
ENDCHAR

STARTCHAR char103
ENCODING 103
SWIDTH 43 0
DWIDTH 6 0
BBX 7 7 -1 -2
BITMAP
3C
6C
CC
C8
FE
18
70
ENDCHAR

STARTCHAR char104
ENCODING 104
SWIDTH 50 0
DWIDTH 7 0
BBX 7 9 0 0
BITMAP
08
30
30
60
78
58
F8
D8
DC
ENDCHAR

STARTCHAR char105
ENCODING 105
SWIDTH 21 0
DWIDTH 3 0
BBX 5 8 -1 0
BITMAP
18
18
00
70
70
E0
E0
78
ENDCHAR

STARTCHAR char106
ENCODING 106
SWIDTH 28 0
DWIDTH 4 0
BBX 5 10 -1 -2
BITMAP
18
18
00
10
70
B0
E8
A0
E0
40
ENDCHAR

STARTCHAR char107
ENCODING 107
SWIDTH 43 0
DWIDTH 6 0
BBX 7 9 0 0
BITMAP
10
20
20
60
5C
EC
B0
E0
DE
ENDCHAR

STARTCHAR char108
ENCODING 108
SWIDTH 21 0
DWIDTH 3 0
BBX 5 9 -1 0
BITMAP
08
10
30
30
60
60
E0
C0
F0
ENDCHAR

STARTCHAR char109
ENCODING 109
SWIDTH 64 0
DWIDTH 9 0
BBX 10 5 -1 0
BITMAP
2FC0
7FC0
DF80
FF80
FFC0
ENDCHAR

STARTCHAR char110
ENCODING 110
SWIDTH 50 0
DWIDTH 7 0
BBX 7 5 0 0
BITMAP
78
78
F8
D8
DE
ENDCHAR

STARTCHAR char111
ENCODING 111
SWIDTH 43 0
DWIDTH 6 0
BBX 7 6 -1 0
BITMAP
08
3C
7C
C8
CE
F8
ENDCHAR

STARTCHAR char112
ENCODING 112
SWIDTH 50 0
DWIDTH 7 0
BBX 8 7 -1 -2
BITMAP
1C
76
76
EC
FB
64
40
ENDCHAR

STARTCHAR char113
ENCODING 113
SWIDTH 43 0
DWIDTH 6 0
BBX 7 7 -1 -2
BITMAP
3C
64
C8
C8
76
1C
18
ENDCHAR

STARTCHAR char114
ENCODING 114
SWIDTH 35 0
DWIDTH 5 0
BBX 5 5 0 0
BITMAP
50
50
F0
D8
C0
ENDCHAR

STARTCHAR char115
ENCODING 115
SWIDTH 28 0
DWIDTH 4 0
BBX 5 5 0 0
BITMAP
30
60
60
A0
F8
ENDCHAR

STARTCHAR char116
ENCODING 116
SWIDTH 28 0
DWIDTH 4 0
BBX 5 7 -1 0
BITMAP
30
30
F0
60
E0
C0
F0
ENDCHAR

STARTCHAR char117
ENCODING 117
SWIDTH 43 0
DWIDTH 6 0
BBX 7 5 -1 0
BITMAP
24
64
EC
D8
FE
ENDCHAR

STARTCHAR char118
ENCODING 118
SWIDTH 43 0
DWIDTH 6 0
BBX 7 6 -1 0
BITMAP
0C
7E
7E
EE
CE
F8
ENDCHAR

STARTCHAR char119
ENCODING 119
SWIDTH 64 0
DWIDTH 9 0
BBX 10 6 -1 0
BITMAP
0100
6780
6F80
C980
C9C0
FE00
ENDCHAR

STARTCHAR char120
ENCODING 120
SWIDTH 43 0
DWIDTH 6 0
BBX 8 5 -1 0
BITMAP
77
1E
10
70
EC
ENDCHAR

STARTCHAR char121
ENCODING 121
SWIDTH 43 0
DWIDTH 6 0
BBX 7 7 -1 -2
BITMAP
44
6C
CC
C8
FE
10
70
ENDCHAR

STARTCHAR char122
ENCODING 122
SWIDTH 35 0
DWIDTH 5 0
BBX 5 5 0 0
BITMAP
70
70
C0
80
F0
ENDCHAR

STARTCHAR char123
ENCODING 123
SWIDTH 28 0
DWIDTH 4 0
BBX 3 11 1 -2
BITMAP
60
C0
C0
C0
C0
80
80
C0
C0
C0
E0
ENDCHAR

STARTCHAR char124
ENCODING 124
SWIDTH 21 0
DWIDTH 3 0
BBX 2 9 1 0
BITMAP
C0
C0
C0
C0
C0
C0
C0
C0
C0
ENDCHAR

STARTCHAR char125
ENCODING 125
SWIDTH 28 0
DWIDTH 4 0
BBX 3 11 1 -2
BITMAP
80
C0
C0
C0
C0
60
C0
C0
C0
C0
C0
ENDCHAR

STARTCHAR char126
ENCODING 126
SWIDTH 0 0
DWIDTH 0 0
BBX 4 2 0 9
BITMAP
D0
E0
ENDCHAR

STARTCHAR char128
ENCODING 128
SWIDTH 57 0
DWIDTH 8 0
BBX 10 9 -2 0
BITMAP
0780
6C40
1800
3E00
7D00
6200
6000
6000
3F80
ENDCHAR

STARTCHAR char130
ENCODING 130
SWIDTH 21 0
DWIDTH 3 0
BBX 3 4 0 -2
BITMAP
20
60
C0
80
ENDCHAR

STARTCHAR char131
ENCODING 131
SWIDTH 0 0
DWIDTH 0 0
BBX 3 2 0 9
BITMAP
40
A0
ENDCHAR

STARTCHAR char132
ENCODING 132
SWIDTH 35 0
DWIDTH 5 0
BBX 5 4 0 -2
BITMAP
28
78
F0
A0
ENDCHAR

STARTCHAR char133
ENCODING 133
SWIDTH 13 0
DWIDTH 12 0
BBX 11 1 1 0
BITMAP
CC60
ENDCHAR

STARTCHAR char134
ENCODING 134
SWIDTH 43 0
DWIDTH 6 0
BBX 5 11 1 -2
BITMAP
30
30
F8
20
60
40
40
80
80
80
80
ENDCHAR

STARTCHAR char136
ENCODING 136
SWIDTH 0 0
DWIDTH 0 0
BBX 4 2 -1 6
BITMAP
60
90
ENDCHAR

STARTCHAR char139
ENCODING 139
SWIDTH 28 0
DWIDTH 4 0
BBX 2 5 1 1
BITMAP
40
40
80
40
40
ENDCHAR

STARTCHAR char140
ENCODING 140
SWIDTH 20 0
DWIDTH 13 0
BBX 14 9 -1 0
BITMAP
1738
19E8
29D8
69D0
C1C0
C304
C30C
C708
7DF0
ENDCHAR

STARTCHAR char145
ENCODING 145
SWIDTH 21 0
DWIDTH 3 0
BBX 2 4 1 5
BITMAP
40
40
C0
80
ENDCHAR

STARTCHAR char146
ENCODING 146
SWIDTH 21 0
DWIDTH 3 0
BBX 3 4 1 5
BITMAP
20
60
40
80
ENDCHAR

STARTCHAR char147
ENCODING 147
SWIDTH 35 0
DWIDTH 5 0
BBX 5 4 1 5
BITMAP
28
50
B0
A0
ENDCHAR

STARTCHAR char148
ENCODING 148
SWIDTH 35 0
DWIDTH 5 0
BBX 5 4 1 5
BITMAP
28
78
50
A0
ENDCHAR

STARTCHAR char149
ENCODING 149
SWIDTH 28 0
DWIDTH 4 0
BBX 3 3 1 3
BITMAP
E0
E0
E0
ENDCHAR

STARTCHAR char150
ENCODING 150
SWIDTH 50 0
DWIDTH 7 0
BBX 6 1 0 2
BITMAP
FC
ENDCHAR

STARTCHAR char151
ENCODING 151
SWIDTH 57 0
DWIDTH 8 0
BBX 9 1 0 3
BITMAP
FF80
ENDCHAR

STARTCHAR char152
ENCODING 152
SWIDTH 0 0
DWIDTH 0 0
BBX 5 1 -1 7
BITMAP
78
ENDCHAR

STARTCHAR char153
ENCODING 153
SWIDTH 71 0
DWIDTH 10 0
BBX 11 5 0 3
BITMAP
FCE0
66C0
6740
67C0
6DC0
ENDCHAR

STARTCHAR char155
ENCODING 155
SWIDTH 28 0
DWIDTH 4 0
BBX 2 5 1 1
BITMAP
80
80
40
C0
80
ENDCHAR

STARTCHAR char156
ENCODING 156
SWIDTH 50 0
DWIDTH 7 0
BBX 8 5 -1 0
BITMAP
3F
6F
CE
C8
FF
ENDCHAR

STARTCHAR char159
ENCODING 159
SWIDTH 6 0
DWIDTH 11 0
BBX 12 13 -1 -2
BITMAP
0380
0000
0E00
3370
4760
C6E0
CEE0
DDC0
5FC0
1BF0
1E80
0D80
1F00
ENDCHAR

STARTCHAR char160
ENCODING 160
SWIDTH 21 0
DWIDTH 3 0
BBX 0 0 0 0
BITMAP
ENDCHAR

STARTCHAR char161
ENCODING 161
SWIDTH 28 0
DWIDTH 4 0
BBX 4 9 0 0
BITMAP
30
30
00
20
20
40
40
C0
40
ENDCHAR

STARTCHAR char162
ENCODING 162
SWIDTH 35 0
DWIDTH 5 0
BBX 6 7 -1 -1
BITMAP
08
1C
78
F0
D0
78
20
ENDCHAR

STARTCHAR char163
ENCODING 163
SWIDTH 64 0
DWIDTH 9 0
BBX 10 9 -1 0
BITMAP
0700
08C0
1840
1800
3E00
1C00
0800
7F00
6600
ENDCHAR

STARTCHAR char164
ENCODING 164
SWIDTH 0 0
DWIDTH 0 0
BBX 3 2 1 9
BITMAP
C0
80
ENDCHAR

STARTCHAR char165
ENCODING 165
SWIDTH 0 0
DWIDTH 0 0
BBX 3 2 0 9
BITMAP
A0
40
ENDCHAR

STARTCHAR char167
ENCODING 167
SWIDTH 43 0
DWIDTH 6 0
BBX 8 11 -2 -3
BITMAP
0F
1B
1C
1C
1E
26
34
18
18
D8
70
ENDCHAR

STARTCHAR char168
ENCODING 168
SWIDTH 0 0
DWIDTH 0 0
BBX 4 2 -1 6
BITMAP
F0
40
ENDCHAR

STARTCHAR char169
ENCODING 169
SWIDTH 64 0
DWIDTH 9 0
BBX 9 8 0 0
BITMAP
3C00
4F00
D380
F180
F180
E780
5900
3E00
ENDCHAR

STARTCHAR char170
ENCODING 170
SWIDTH 0 0
DWIDTH 0 0
BBX 4 1 0 10
BITMAP
F0
ENDCHAR

STARTCHAR char171
ENCODING 171
SWIDTH 43 0
DWIDTH 6 0
BBX 5 3 0 1
BITMAP
58
B0
50
ENDCHAR

STARTCHAR char172
ENCODING 172
SWIDTH 57 0
DWIDTH 8 0
BBX 9 4 0 0
BITMAP
FF80
0180
0180
0180
ENDCHAR

STARTCHAR char174
ENCODING 174
SWIDTH 64 0
DWIDTH 9 0
BBX 9 8 0 0
BITMAP
1C00
7F00
E700
F780
FD80
F580
7700
3E00
ENDCHAR

STARTCHAR char176
ENCODING 176
SWIDTH 21 0
DWIDTH 3 0
BBX 5 4 0 4
BITMAP
70
D8
58
20
ENDCHAR

STARTCHAR char177
ENCODING 177
SWIDTH 43 0
DWIDTH 6 0
BBX 6 8 0 0
BITMAP
30
30
30
FC
30
30
30
FC
ENDCHAR

STARTCHAR char180
ENCODING 180
SWIDTH 0 0
DWIDTH 0 0
BBX 3 2 0 6
BITMAP
60
80
ENDCHAR

STARTCHAR char182
ENCODING 182
SWIDTH 57 0
DWIDTH 8 0
BBX 6 11 1 -2
BITMAP
7C
EC
EC
EC
6C
6C
6C
6C
6C
6C
6C
ENDCHAR

STARTCHAR char183
ENCODING 183
SWIDTH 14 0
DWIDTH 2 0
BBX 2 1 1 3
BITMAP
C0
ENDCHAR

STARTCHAR char184
ENCODING 184
SWIDTH 0 0
DWIDTH 0 0
BBX 2 2 -2 -2
BITMAP
C0
80
ENDCHAR

STARTCHAR char186
ENCODING 186
SWIDTH 0 0
DWIDTH 0 0
BBX 4 2 0 9
BITMAP
D0
E0
ENDCHAR

STARTCHAR char187
ENCODING 187
SWIDTH 43 0
DWIDTH 6 0
BBX 5 3 0 1
BITMAP
50
28
D0
ENDCHAR

STARTCHAR char191
ENCODING 191
SWIDTH 35 0
DWIDTH 5 0
BBX 5 9 -1 0
BITMAP
18
18
10
18
18
30
70
D0
F0
ENDCHAR

STARTCHAR char192
ENCODING 192
SWIDTH 6 0
DWIDTH 11 0
BBX 12 11 -1 0
BITMAP
0100
0100
0030
0070
0070
00E0
07F0
7960
C2C0
C6C0
78F0
ENDCHAR

STARTCHAR char193
ENCODING 193
SWIDTH 6 0
DWIDTH 11 0
BBX 12 11 -1 0
BITMAP
0180
0100
0030
0070
0070
00E0
07F0
7960
C2C0
C6C0
78F0
ENDCHAR

STARTCHAR char194
ENCODING 194
SWIDTH 6 0
DWIDTH 11 0
BBX 12 11 -1 0
BITMAP
0180
0280
0030
0070
0070
00E0
07F0
7960
C2C0
C6C0
78F0
ENDCHAR

STARTCHAR char195
ENCODING 195
SWIDTH 6 0
DWIDTH 11 0
BBX 12 11 -1 0
BITMAP
03E0
0380
0030
0070
0070
00E0
07F0
7960
C2C0
C6C0
78F0
ENDCHAR

STARTCHAR char196
ENCODING 196
SWIDTH 6 0
DWIDTH 11 0
BBX 14 11 -1 0
BITMAP
003C
0010
0030
0050
0070
00E0
07F0
7960
C2E0
C6C0
78F0
ENDCHAR

STARTCHAR char197
ENCODING 197
SWIDTH 6 0
DWIDTH 11 0
BBX 14 11 -1 0
BITMAP
003C
003C
0030
0050
0070
00A0
07F0
7960
C2C0
C6C0
78F0
ENDCHAR

STARTCHAR char198
ENCODING 198
SWIDTH 20 0
DWIDTH 13 0
BBX 15 9 -1 0
BITMAP
00CE
0154
02F6
02A8
1FE0
2784
C706
CB0C
F1F0
ENDCHAR

STARTCHAR char199
ENCODING 199
SWIDTH 57 0
DWIDTH 8 0
BBX 9 11 -1 -2
BITMAP
0F00
1980
3780
6980
F100
D200
DC00
C000
2700
1800
1000
ENDCHAR

STARTCHAR char200
ENCODING 200
SWIDTH 57 0
DWIDTH 8 0
BBX 9 11 -1 0
BITMAP
0400
0200
0700
0D80
0B00
0A00
1000
6080
C180
C100
7E00
ENDCHAR

STARTCHAR char201
ENCODING 201
SWIDTH 57 0
DWIDTH 8 0
BBX 9 11 -1 0
BITMAP
0300
0400
0700
0D80
0B00
0A00
1000
6080
C180
C100
7E00
ENDCHAR

STARTCHAR char202
ENCODING 202
SWIDTH 57 0
DWIDTH 8 0
BBX 9 11 -1 0
BITMAP
0600
0900
0700
0D80
0B00
0A00
1000
6080
C180
C100
7E00
ENDCHAR

STARTCHAR char203
ENCODING 203
SWIDTH 57 0
DWIDTH 8 0
BBX 9 11 -1 0
BITMAP
0F00
0000
0700
0D80
0F00
0C00
1000
6100
C180
C100
7E00
ENDCHAR

STARTCHAR char204
ENCODING 204
SWIDTH 57 0
DWIDTH 8 0
BBX 9 11 -1 0
BITMAP
0400
0200
0F00
3080
2080
0100
0100
3F00
4300
C600
7800
ENDCHAR

STARTCHAR char205
ENCODING 205
SWIDTH 57 0
DWIDTH 8 0
BBX 10 11 -1 0
BITMAP
0200
0400
0F40
3080
2080
0100
0100
3F00
4300
C600
7800
ENDCHAR

STARTCHAR char206
ENCODING 206
SWIDTH 57 0
DWIDTH 8 0
BBX 9 12 -1 0
BITMAP
0600
0600
0400
3F80
2080
2180
0100
0100
3F00
4300
C600
7800
ENDCHAR

STARTCHAR char207
ENCODING 207
SWIDTH 57 0
DWIDTH 8 0
BBX 9 11 -1 0
BITMAP
0F00
0000
0F00
3080
2180
0100
0300
3F00
4300
C600
7800
ENDCHAR

STARTCHAR char209
ENCODING 209
SWIDTH 6 0
DWIDTH 11 0
BBX 13 11 -1 0
BITMAP
03E0
0380
0E10
11F0
2120
4360
C740
C6C0
CEC0
18C0
1C70
ENDCHAR

STARTCHAR char210
ENCODING 210
SWIDTH 57 0
DWIDTH 8 0
BBX 8 11 0 0
BITMAP
0C
04
1E
31
51
53
C3
C2
C6
C4
78
ENDCHAR

STARTCHAR char211
ENCODING 211
SWIDTH 57 0
DWIDTH 8 0
BBX 8 11 0 0
BITMAP
06
08
1E
31
51
53
C3
C2
C6
C4
78
ENDCHAR

STARTCHAR char212
ENCODING 212
SWIDTH 57 0
DWIDTH 8 0
BBX 8 11 0 0
BITMAP
0C
0A
1E
31
51
53
C3
C2
C6
C4
78
ENDCHAR

STARTCHAR char213
ENCODING 213
SWIDTH 57 0
DWIDTH 8 0
BBX 8 11 0 0
BITMAP
0F
02
1E
31
51
53
C3
C2
C6
C4
78
ENDCHAR

STARTCHAR char214
ENCODING 214
SWIDTH 57 0
DWIDTH 8 0
BBX 8 11 0 0
BITMAP
0F
00
1E
29
51
51
C3
C3
C3
C6
78
ENDCHAR

STARTCHAR char216
ENCODING 216
SWIDTH 57 0
DWIDTH 8 0
BBX 8 9 0 0
BITMAP
1F
33
55
5B
D3
D2
E6
C4
F8
ENDCHAR

STARTCHAR char217
ENCODING 217
SWIDTH 6 0
DWIDTH 11 0
BBX 13 11 -1 0
BITMAP
0300
0180
0700
1B30
2370
4260
C6E0
CD40
4FC0
4B80
0CF0
ENDCHAR

STARTCHAR char218
ENCODING 218
SWIDTH 6 0
DWIDTH 11 0
BBX 13 11 -1 0
BITMAP
0180
0100
0700
1B30
2370
4260
C6E0
CD40
4FC0
4B80
0CF0
ENDCHAR

STARTCHAR char219
ENCODING 219
SWIDTH 6 0
DWIDTH 11 0
BBX 13 11 -1 0
BITMAP
0300
0280
0700
1B30
2370
4260
C6E0
CD40
4FC0
4B80
0CF0
ENDCHAR

STARTCHAR char220
ENCODING 220
SWIDTH 6 0
DWIDTH 11 0
BBX 13 11 -1 0
BITMAP
00B0
0080
0F00
1330
2360
4260
C6E0
C4C0
4DC0
4B80
0CF0
ENDCHAR

STARTCHAR char223
ENCODING 223
SWIDTH 57 0
DWIDTH 8 0
BBX 8 11 -1 -2
BITMAP
07
0B
16
1C
3C
23
23
7F
FC
40
40
ENDCHAR

STARTCHAR char224
ENCODING 224
SWIDTH 43 0
DWIDTH 6 0
BBX 7 8 -1 0
BITMAP
08
04
00
3C
64
C8
C8
FC
ENDCHAR

STARTCHAR char225
ENCODING 225
SWIDTH 43 0
DWIDTH 6 0
BBX 7 8 -1 0
BITMAP
0C
18
00
3C
64
C8
C8
FC
ENDCHAR

STARTCHAR char226
ENCODING 226
SWIDTH 43 0
DWIDTH 6 0
BBX 7 8 -1 0
BITMAP
1C
14
00
3C
64
C8
C8
FC
ENDCHAR

STARTCHAR char227
ENCODING 227
SWIDTH 43 0
DWIDTH 6 0
BBX 8 8 -1 0
BITMAP
1F
00
00
3C
64
C8
C8
FC
ENDCHAR

STARTCHAR char228
ENCODING 228
SWIDTH 43 0
DWIDTH 6 0
BBX 7 8 -1 0
BITMAP
1E
10
00
3E
6C
DC
D8
FE
ENDCHAR

STARTCHAR char229
ENCODING 229
SWIDTH 43 0
DWIDTH 6 0
BBX 7 8 -1 0
BITMAP
1E
1E
00
3C
6C
DC
D8
FE
ENDCHAR

STARTCHAR char230
ENCODING 230
SWIDTH 50 0
DWIDTH 7 0
BBX 8 5 -1 0
BITMAP
3F
6F
DE
D8
FF
ENDCHAR

STARTCHAR char231
ENCODING 231
SWIDTH 35 0
DWIDTH 5 0
BBX 5 7 0 -2
BITMAP
78
D0
E0
80
F0
C0
80
ENDCHAR

STARTCHAR char232
ENCODING 232
SWIDTH 28 0
DWIDTH 4 0
BBX 5 8 0 0
BITMAP
20
10
00
38
58
E0
80
F0
ENDCHAR

STARTCHAR char233
ENCODING 233
SWIDTH 28 0
DWIDTH 4 0
BBX 5 8 0 0
BITMAP
10
20
00
38
58
E0
80
F0
ENDCHAR

STARTCHAR char234
ENCODING 234
SWIDTH 28 0
DWIDTH 4 0
BBX 5 8 0 0
BITMAP
38
48
00
38
58
E0
80
F0
ENDCHAR

STARTCHAR char235
ENCODING 235
SWIDTH 28 0
DWIDTH 4 0
BBX 5 8 0 0
BITMAP
78
00
00
38
78
E0
80
F0
ENDCHAR

STARTCHAR char236
ENCODING 236
SWIDTH 21 0
DWIDTH 3 0
BBX 4 8 0 0
BITMAP
60
20
00
40
40
C0
C0
F0
ENDCHAR

STARTCHAR char237
ENCODING 237
SWIDTH 21 0
DWIDTH 3 0
BBX 5 8 0 0
BITMAP
30
20
00
40
40
C0
C0
F0
ENDCHAR

STARTCHAR char238
ENCODING 238
SWIDTH 21 0
DWIDTH 3 0
BBX 4 8 0 0
BITMAP
20
50
00
40
40
C0
C0
F0
ENDCHAR

STARTCHAR char239
ENCODING 239
SWIDTH 21 0
DWIDTH 3 0
BBX 5 8 0 0
BITMAP
58
00
00
40
40
C0
C0
F0
ENDCHAR

STARTCHAR char241
ENCODING 241
SWIDTH 50 0
DWIDTH 7 0
BBX 7 8 0 0
BITMAP
1E
00
00
58
78
F8
D8
DE
ENDCHAR

STARTCHAR char242
ENCODING 242
SWIDTH 43 0
DWIDTH 6 0
BBX 7 8 -1 0
BITMAP
18
04
08
3C
7C
C8
CE
F8
ENDCHAR

STARTCHAR char243
ENCODING 243
SWIDTH 43 0
DWIDTH 6 0
BBX 7 8 -1 0
BITMAP
0C
08
08
3C
7C
C8
CE
F8
ENDCHAR

STARTCHAR char244
ENCODING 244
SWIDTH 43 0
DWIDTH 6 0
BBX 7 8 -1 0
BITMAP
08
14
08
3C
7C
C8
CE
F8
ENDCHAR

STARTCHAR char245
ENCODING 245
SWIDTH 43 0
DWIDTH 6 0
BBX 7 8 -1 0
BITMAP
1E
00
08
3C
7C
C8
CE
F8
ENDCHAR

STARTCHAR char246
ENCODING 246
SWIDTH 43 0
DWIDTH 6 0
BBX 7 8 -1 0
BITMAP
1E
08
08
1C
6C
CC
CE
F8
ENDCHAR

STARTCHAR char247
ENCODING 247
SWIDTH 43 0
DWIDTH 6 0
BBX 6 4 0 1
BITMAP
30
FC
00
30
ENDCHAR

STARTCHAR char248
ENCODING 248
SWIDTH 43 0
DWIDTH 6 0
BBX 7 8 -1 -1
BITMAP
04
0C
3C
7C
DC
FE
F8
40
ENDCHAR

STARTCHAR char249
ENCODING 249
SWIDTH 43 0
DWIDTH 6 0
BBX 7 8 -1 0
BITMAP
18
04
00
24
64
EC
D8
FE
ENDCHAR

STARTCHAR char250
ENCODING 250
SWIDTH 43 0
DWIDTH 6 0
BBX 7 8 -1 0
BITMAP
0C
18
00
24
64
EC
D8
FE
ENDCHAR

STARTCHAR char251
ENCODING 251
SWIDTH 43 0
DWIDTH 6 0
BBX 7 8 -1 0
BITMAP
1C
12
00
24
64
EC
D8
FE
ENDCHAR

STARTCHAR char252
ENCODING 252
SWIDTH 43 0
DWIDTH 6 0
BBX 7 8 -1 0
BITMAP
1E
10
00
6E
6C
FC
D8
FE
ENDCHAR

STARTCHAR char255
ENCODING 255
SWIDTH 43 0
DWIDTH 6 0
BBX 7 10 -1 -2
BITMAP
1E
08
00
66
6C
CC
C8
FE
18
70
ENDCHAR
ENDFONT
